<?xml version="1.0" encoding="UTF-8" standalone="no"?>
<!-- Created with Inkscape (http://www.inkscape.org/) -->

<svg
   xmlns:dc="http://purl.org/dc/elements/1.1/"
   xmlns:cc="http://creativecommons.org/ns#"
   xmlns:rdf="http://www.w3.org/1999/02/22-rdf-syntax-ns#"
   xmlns:svg="http://www.w3.org/2000/svg"
   xmlns="http://www.w3.org/2000/svg"
   xmlns:sodipodi="http://sodipodi.sourceforge.net/DTD/sodipodi-0.dtd"
   xmlns:inkscape="http://www.inkscape.org/namespaces/inkscape"
   width="279.19208"
   height="30"
   viewBox="0 0 73.869569 7.9375001"
   version="1.1"
   id="svg8"
   inkscape:version="0.92.4 (5da689c313, 2019-01-14)"
   sodipodi:docname="logo.svg">
  <defs
     id="defs2" />
  <sodipodi:namedview
     id="base"
     pagecolor="#ffffff"
     bordercolor="#666666"
     borderopacity="1.0"
     inkscape:pageopacity="0.0"
     inkscape:pageshadow="2"
     inkscape:zoom="1.979899"
     inkscape:cx="266.44819"
     inkscape:cy="42.842709"
     inkscape:document-units="px"
     inkscape:current-layer="layer1"
     showgrid="false"
     units="px"
     inkscape:pagecheckerboard="true"
     fit-margin-top="0"
     fit-margin-left="0"
     fit-margin-right="0"
     fit-margin-bottom="0"
     inkscape:window-width="1920"
     inkscape:window-height="1017"
     inkscape:window-x="-8"
     inkscape:window-y="-8"
     inkscape:window-maximized="1" />
  <metadata
     id="metadata5">
    <rdf:RDF>
      <cc:Work
         rdf:about="">
        <dc:format>image/svg+xml</dc:format>
        <dc:type
           rdf:resource="http://purl.org/dc/dcmitype/StillImage" />
        <dc:title></dc:title>
      </cc:Work>
    </rdf:RDF>
  </metadata>
  <g
     inkscape:label="Layer 1"
     inkscape:groupmode="layer"
     id="layer1"
     transform="translate(8.2335413e-7,-289.06249)">
    <g
       aria-label="TrendyHouse"
       transform="matrix(0.19359755,0,0,0.19359755,-0.36085355,310.43802)"
       style="font-style:normal;font-variant:normal;font-weight:bold;font-stretch:normal;font-size:42.66666794px;line-height:1.29999995;font-family:sans-serif;-inkscape-font-specification:'sans-serif Bold';text-align:start;letter-spacing:6.83333349px;word-spacing:0px;text-anchor:start;fill:#000000;fill-opacity:1;stroke:none"
       id="flowRoot823">
      <path
         d="m 29.238933,-103.01635 h -9.6875 v 25.020829 h -8 V -103.01635 H 1.8639323 v -6.00001 H 29.238933 Z"
         id="path833"
         inkscape:connector-curvature="0" />
      <path
         d="m 57.426434,-94.245521 h -0.666667 q -0.479166,-0.166667 -1.541666,-0.25 -1.0625,-0.08333 -1.770834,-0.08333 -1.604166,0 -2.833333,0.208334 -1.229167,0.208333 -2.645833,0.708333 v 15.666667 H 40.4681 v -23.395833 h 7.500001 v 3.437499 q 2.479166,-2.124999 4.3125,-2.812499 1.833333,-0.70834 3.375,-0.70834 0.395833,0 0.895833,0.0208 0.5,0.0208 0.875,0.0625 z"
         id="path835"
         inkscape:connector-curvature="0" />
      <path
         d="M 91.5931,-88.308021 H 74.426433 q 0.166666,2.75 2.083333,4.208333 1.9375,1.458334 5.6875,1.458334 2.375,0 4.604167,-0.854167 2.229167,-0.854167 3.520833,-1.833333 H 91.1556 v 6.020833 q -2.541667,1.020833 -4.791667,1.479167 -2.25,0.458333 -4.979167,0.458333 -7.041667,0 -10.791667,-3.166667 -3.75,-3.166666 -3.75,-9.020833 0,-5.791667 3.541667,-9.166667 3.5625,-3.395832 9.75,-3.395832 5.708334,0 8.583334,2.895832 2.875,2.875 2.875,8.291667 z m -7.458334,-4.395834 q -0.0625,-2.354166 -1.166667,-3.541666 -1.104166,-1.1875 -3.4375,-1.1875 -2.166666,0 -3.5625,1.125 -1.395833,1.125 -1.5625,3.604166 z"
         id="path837"
         inkscape:connector-curvature="0" />
      <path
         d="m 127.2181,-77.995521 h -7.54166 v -11.604167 q 0,-1.416667 -0.14584,-2.8125 -0.14583,-1.416667 -0.5,-2.083333 -0.41666,-0.770834 -1.22916,-1.125 -0.79167,-0.354167 -2.22917,-0.354167 -1.02083,0 -2.08333,0.333333 -1.04167,0.333334 -2.27084,1.0625 v 16.583334 h -7.5 v -23.395829 h 7.5 v 2.583328 q 2,-1.562498 3.83334,-2.395828 1.85416,-0.83334 4.10416,-0.83334 3.79167,0 5.91667,2.208335 2.14583,2.208334 2.14583,6.604167 z"
         id="path839"
         inkscape:connector-curvature="0" />
      <path
         d="m 163.7181,-77.995521 h -7.5 v -2.4375 q -1.9375,1.583333 -3.625,2.333333 -1.6875,0.75 -3.89583,0.75 -4.27083,0 -6.83333,-3.291666 -2.5625,-3.291667 -2.5625,-8.875001 0,-2.979166 0.85416,-5.270833 0.875,-2.3125 2.375,-3.958334 1.41667,-1.562498 3.4375,-2.416668 2.02084,-0.875 4.04167,-0.875 2.10417,0 3.4375,0.45834 1.35417,0.4375 2.77083,1.125 v -9.95834 h 7.5 z m -7.5,-6.458333 v -11.479167 q -0.79166,-0.333334 -1.66666,-0.479167 -0.875,-0.145833 -1.60417,-0.145833 -2.95833,0 -4.4375,1.854166 -1.47917,1.833334 -1.47917,5.104167 0,3.4375 1.1875,5 1.1875,1.541667 3.8125,1.541667 1.02084,0 2.16667,-0.375 1.14583,-0.395833 2.02083,-1.020833 z"
         id="path841"
         inkscape:connector-curvature="0" />
      <path
         d="m 188.19728,-86.266354 5.33333,-15.124996 h 7.70833 l -13,31.979163 h -8.125 l 3.70834,-8.750001 -9.10417,-23.229162 h 7.875 z"
         id="path843"
         inkscape:connector-curvature="0" />
      <path
         d="m 240.44727,-77.995521 h -8 v -13.666667 h -11.8125 v 13.666667 h -8 v -31.020839 h 8 v 11.354172 h 11.8125 v -11.354172 h 8 z"
         style="fill:#ff9955"
         id="path845"
         inkscape:connector-curvature="0" />
      <path
         d="m 278.7181,-89.683021 q 0,5.770833 -3.375,9.104167 -3.35417,3.3125 -9.4375,3.3125 -6.08333,0 -9.45833,-3.3125 -3.35417,-3.333334 -3.35417,-9.104167 0,-5.8125 3.375,-9.125001 3.39583,-3.312498 9.4375,-3.312498 6.125,0 9.45833,3.333332 3.35417,3.333333 3.35417,9.104167 z m -9.22917,5.6875 q 0.72917,-0.895833 1.08334,-2.145833 0.375,-1.270834 0.375,-3.500001 0,-2.0625 -0.375,-3.458333 -0.375,-1.395833 -1.04167,-2.229167 -0.66667,-0.854166 -1.60417,-1.208333 -0.9375,-0.354167 -2.02083,-0.354167 -1.08333,0 -1.9375,0.291667 -0.83333,0.291667 -1.60417,1.166667 -0.6875,0.8125 -1.10416,2.229166 -0.39584,1.416667 -0.39584,3.5625 0,1.916667 0.35417,3.333334 0.35417,1.395833 1.04167,2.25 0.66666,0.8125 1.58333,1.1875 0.9375,0.375 2.125,0.375 1.02083,0 1.9375,-0.333333 0.9375,-0.354167 1.58333,-1.166667 z"
         style="fill:#ff9955"
         id="path847"
         inkscape:connector-curvature="0" />
      <path
         d="m 314.28062,-77.995521 h -7.5 v -2.583333 q -2.08333,1.583333 -3.8125,2.416666 -1.72917,0.8125 -4.125,0.8125 -3.875,0 -5.97917,-2.229166 -2.08333,-2.229167 -2.08333,-6.583334 v -15.229162 h 7.54167 v 11.604162 q 0,1.770833 0.10416,2.958334 0.125,1.166666 0.54167,1.9375 0.39583,0.770833 1.1875,1.125 0.8125,0.354166 2.25,0.354166 0.95833,0 2.125,-0.354166 1.16667,-0.354167 2.25,-1.041667 v -16.583329 h 7.5 z"
         style="fill:#ff9955"
         id="path849"
         inkscape:connector-curvature="0" />
      <path
         d="m 348.55145,-85.412188 q 0,3.625 -3.25,5.854167 -3.25,2.208333 -8.89583,2.208333 -3.125,0 -5.66667,-0.583333 -2.54166,-0.583333 -4.08333,-1.291667 v -6.166666 h 0.6875 q 0.5625,0.395833 1.29167,0.875 0.75,0.458333 2.10416,1 1.16667,0.479166 2.64584,0.833333 1.47916,0.333333 3.16666,0.333333 2.20834,0 3.27084,-0.479166 1.0625,-0.5 1.0625,-1.458334 0,-0.854166 -0.625,-1.229166 -0.625,-0.395834 -2.375,-0.75 -0.83334,-0.1875 -2.27084,-0.395834 -1.41666,-0.229166 -2.58333,-0.541667 -3.1875,-0.833333 -4.72917,-2.583333 -1.54166,-1.770833 -1.54166,-4.395833 0,-3.375 3.1875,-5.604167 3.20833,-2.250002 8.75,-2.250002 2.625,0 5.02083,0.54167 2.41667,0.52083 3.77083,1.125 v 5.916665 h -0.64583 q -1.66667,-1.145833 -3.8125,-1.854166 -2.125,-0.729167 -4.3125,-0.729167 -1.8125,0 -3.0625,0.5 -1.22917,0.5 -1.22917,1.416667 0,0.833333 0.5625,1.270833 0.5625,0.4375 2.64584,0.875 1.14583,0.229167 2.45833,0.458333 1.33333,0.208334 2.66667,0.541667 2.95833,0.770833 4.375,2.4375 1.41666,1.645833 1.41666,4.125 z"
         style="fill:#ff9955"
         id="path851"
         inkscape:connector-curvature="0" />
      <path
         d="m 383.42644,-88.308021 h -17.16666 q 0.16666,2.75 2.08333,4.208333 1.9375,1.458334 5.6875,1.458334 2.375,0 4.60417,-0.854167 2.22916,-0.854167 3.52083,-1.833333 h 0.83333 v 6.020833 q -2.54166,1.020833 -4.79166,1.479167 -2.25,0.458333 -4.97917,0.458333 -7.04167,0 -10.79167,-3.166667 -3.75,-3.166666 -3.75,-9.020833 0,-5.791667 3.54167,-9.166667 3.5625,-3.395832 9.75,-3.395832 5.70833,0 8.58333,2.895832 2.875,2.875 2.875,8.291667 z m -7.45833,-4.395834 q -0.0625,-2.354166 -1.16667,-3.541666 -1.10416,-1.1875 -3.4375,-1.1875 -2.16666,0 -3.5625,1.125 -1.39583,1.125 -1.5625,3.604166 z"
         style="fill:#ff9955"
         id="path853"
         inkscape:connector-curvature="0" />
    </g>
  </g>
</svg>
