<?xml version="1.0" encoding="UTF-8" standalone="no"?>
<!-- Created with Inkscape (http://www.inkscape.org/) -->

<svg
   xmlns:dc="http://purl.org/dc/elements/1.1/"
   xmlns:cc="http://creativecommons.org/ns#"
   xmlns:rdf="http://www.w3.org/1999/02/22-rdf-syntax-ns#"
   xmlns:svg="http://www.w3.org/2000/svg"
   xmlns="http://www.w3.org/2000/svg"
   xmlns:sodipodi="http://sodipodi.sourceforge.net/DTD/sodipodi-0.dtd"
   xmlns:inkscape="http://www.inkscape.org/namespaces/inkscape"
   width="281.32965"
   height="30"
   viewBox="0 0 74.435135 7.9375001"
   version="1.1"
   id="svg8"
   inkscape:version="0.92.4 (5da689c313, 2019-01-14)"
   sodipodi:docname="logo.svg">
  <defs
     id="defs2" />
  <sodipodi:namedview
     id="base"
     pagecolor="#ffffff"
     bordercolor="#666666"
     borderopacity="1.0"
     inkscape:pageopacity="0.0"
     inkscape:pageshadow="2"
     inkscape:zoom="1.979899"
     inkscape:cx="348.52308"
     inkscape:cy="42.842706"
     inkscape:document-units="px"
     inkscape:current-layer="layer1"
     showgrid="false"
     units="px"
     inkscape:pagecheckerboard="true"
     fit-margin-top="0"
     fit-margin-left="0"
     fit-margin-right="0"
     fit-margin-bottom="0"
     inkscape:window-width="1920"
     inkscape:window-height="1017"
     inkscape:window-x="-8"
     inkscape:window-y="-8"
     inkscape:window-maximized="1" />
  <metadata
     id="metadata5">
    <rdf:RDF>
      <cc:Work
         rdf:about="">
        <dc:format>image/svg+xml</dc:format>
        <dc:type
           rdf:resource="http://purl.org/dc/dcmitype/StillImage" />
        <dc:title></dc:title>
      </cc:Work>
    </rdf:RDF>
  </metadata>
  <g
     inkscape:label="Layer 1"
     inkscape:groupmode="layer"
     id="layer1"
     transform="translate(8.1797682e-7,-289.06249)">
    <g
       aria-label="ComfyHouse"
       transform="matrix(0.19261882,0,0,0.19261882,-17.474014,265.14454)"
       style="font-style:normal;font-variant:normal;font-weight:normal;font-stretch:normal;font-size:42.66666794px;line-height:1.29999995;font-family:sans-serif;-inkscape-font-specification:sans-serif;text-align:start;letter-spacing:0px;word-spacing:0px;text-anchor:start;fill:#000000;fill-opacity:1;stroke:none"
       id="flowRoot815">
      <path
         d="m 106.55143,157.40161 q -3.45833,0 -6.39583,-1.02083 -2.916667,-1.02083 -5.020834,-3.04167 -2.104167,-2.02083 -3.270834,-5.04166 -1.145833,-3.02084 -1.145833,-6.97917 0,-3.6875 1.104167,-6.6875 1.104166,-3 3.208333,-5.14583 2.020834,-2.0625 5.000001,-3.1875 3,-1.125 6.54167,-1.125 1.95833,0 3.52083,0.22916 1.58333,0.20834 2.91667,0.5625 1.39583,0.39584 2.52083,0.89584 1.14583,0.47916 2,0.89583 v 7.52083 h -0.91667 q -0.58333,-0.5 -1.47916,-1.1875 -0.875,-0.6875 -2,-1.35416 -1.14584,-0.66667 -2.47917,-1.125 -1.33333,-0.45834 -2.85417,-0.45834 -1.6875,0 -3.20833,0.54167 -1.52083,0.52083 -2.8125,1.75 -1.22917,1.1875 -2.000001,3.14583 -0.75,1.95834 -0.75,4.75 0,2.91667 0.8125,4.875 0.833331,1.95834 2.083331,3.08334 1.27084,1.14583 2.83334,1.64583 1.5625,0.47917 3.08333,0.47917 1.45833,0 2.875,-0.4375 1.4375,-0.4375 2.64583,-1.1875 1.02084,-0.60417 1.89584,-1.29167 0.875,-0.6875 1.4375,-1.1875 h 0.83333 v 7.41667 q -1.16667,0.52083 -2.22917,0.97916 -1.0625,0.45834 -2.22916,0.79167 -1.52084,0.4375 -2.85417,0.66667 -1.33333,0.22916 -3.66667,0.22916 z"
         style="font-style:normal;font-variant:normal;font-weight:bold;font-stretch:normal;font-family:sans-serif;-inkscape-font-specification:'sans-serif Bold';letter-spacing:10px;word-spacing:0px"
         id="path817"
         inkscape:connector-curvature="0" />
      <path
         d="m 156.94727,145.10995 q 0,5.77083 -3.375,9.10416 -3.35417,3.3125 -9.4375,3.3125 -6.08334,0 -9.45834,-3.3125 -3.35416,-3.33333 -3.35416,-9.10416 0,-5.8125 3.375,-9.125 3.39583,-3.3125 9.4375,-3.3125 6.125,0 9.45833,3.33333 3.35417,3.33333 3.35417,9.10417 z m -9.22917,5.6875 q 0.72917,-0.89584 1.08333,-2.14584 0.375,-1.27083 0.375,-3.5 0,-2.0625 -0.375,-3.45833 -0.375,-1.39583 -1.04166,-2.22917 -0.66667,-0.85416 -1.60417,-1.20833 -0.9375,-0.35417 -2.02083,-0.35417 -1.08334,0 -1.9375,0.29167 -0.83334,0.29167 -1.60417,1.16667 -0.6875,0.8125 -1.10417,2.22916 -0.39583,1.41667 -0.39583,3.5625 0,1.91667 0.35417,3.33334 0.35416,1.39583 1.04166,2.25 0.66667,0.8125 1.58334,1.1875 0.9375,0.375 2.125,0.375 1.02083,0 1.9375,-0.33334 0.9375,-0.35416 1.58333,-1.16666 z"
         style="font-style:normal;font-variant:normal;font-weight:bold;font-stretch:normal;font-family:sans-serif;-inkscape-font-specification:'sans-serif Bold';letter-spacing:10px;word-spacing:0px"
         id="path819"
         inkscape:connector-curvature="0" />
      <path
         d="m 195.23893,140.21411 v 16.58334 h -7.54166 v -11.6875 q 0,-1.70834 -0.0833,-2.89584 -0.0833,-1.20833 -0.45833,-1.95833 -0.375,-0.75 -1.14583,-1.08333 -0.75,-0.35417 -2.125,-0.35417 -1.10417,0 -2.14584,0.45833 -1.04166,0.4375 -1.875,0.9375 v 16.58334 h -7.5 v -23.39584 h 7.5 v 2.58334 q 1.9375,-1.52084 3.70834,-2.375 1.77083,-0.85417 3.91666,-0.85417 2.3125,0 4.08334,1.04167 1.77083,1.02083 2.77083,3.02083 2.25,-1.89583 4.375,-2.97917 2.125,-1.08333 4.16667,-1.08333 3.79166,0 5.75,2.27083 1.97916,2.27084 1.97916,6.54167 v 15.22917 h -7.54166 v -11.6875 q 0,-1.72917 -0.0833,-2.91667 -0.0625,-1.1875 -0.4375,-1.9375 -0.35416,-0.75 -1.125,-1.08333 -0.77083,-0.35417 -2.16666,-0.35417 -0.9375,0 -1.83334,0.33333 -0.89583,0.3125 -2.1875,1.0625 z"
         style="font-style:normal;font-variant:normal;font-weight:bold;font-stretch:normal;font-family:sans-serif;-inkscape-font-specification:'sans-serif Bold';letter-spacing:10px;word-spacing:0px"
         id="path821"
         inkscape:connector-curvature="0" />
      <path
         d="m 242.69727,129.88078 h -0.5625 q -0.5,-0.14583 -1.3125,-0.33333 -0.79167,-0.1875 -1.70833,-0.1875 -2.20834,0 -3,0.79166 -0.77084,0.79167 -0.77084,3.0625 v 0.1875 h 5.79167 v 5.08334 h -5.54167 v 18.3125 h -7.5 v -18.3125 h -3.20833 v -5.08334 h 3.20833 v -0.64583 q 0,-4.29167 2.27084,-6.4375 2.29166,-2.14583 6.91666,-2.14583 1.66667,0 3.02084,0.125 1.35416,0.10416 2.39583,0.29166 z"
         style="font-style:normal;font-variant:normal;font-weight:bold;font-stretch:normal;font-family:sans-serif;-inkscape-font-specification:'sans-serif Bold';letter-spacing:10px;word-spacing:0px"
         id="path823"
         inkscape:connector-curvature="0" />
      <path
         d="m 266.0931,148.52661 5.33334,-15.125 h 7.70833 l -13,31.97917 h -8.125 l 3.70833,-8.75 -9.10416,-23.22917 h 7.875 z"
         style="font-style:normal;font-variant:normal;font-weight:bold;font-stretch:normal;font-family:sans-serif;-inkscape-font-specification:'sans-serif Bold';letter-spacing:10px;word-spacing:0px"
         id="path825"
         inkscape:connector-curvature="0" />
      <path
         d="m 321.50977,156.79745 h -8 v -13.66667 h -11.8125 v 13.66667 h -8 v -31.02084 h 8 v 11.35417 h 11.8125 v -11.35417 h 8 z"
         style="font-style:normal;font-variant:normal;font-weight:bold;font-stretch:normal;font-family:sans-serif;-inkscape-font-specification:'sans-serif Bold';letter-spacing:10px;word-spacing:0px;fill:#ff9955"
         id="path827"
         inkscape:connector-curvature="0" />
      <path
         d="m 362.94727,145.10995 q 0,5.77083 -3.375,9.10416 -3.35417,3.3125 -9.4375,3.3125 -6.08333,0 -9.45833,-3.3125 -3.35417,-3.33333 -3.35417,-9.10416 0,-5.8125 3.375,-9.125 3.39583,-3.3125 9.4375,-3.3125 6.125,0 9.45833,3.33333 3.35417,3.33333 3.35417,9.10417 z m -9.22917,5.6875 q 0.72917,-0.89584 1.08334,-2.14584 0.375,-1.27083 0.375,-3.5 0,-2.0625 -0.375,-3.45833 -0.375,-1.39583 -1.04167,-2.22917 -0.66667,-0.85416 -1.60417,-1.20833 -0.9375,-0.35417 -2.02083,-0.35417 -1.08333,0 -1.9375,0.29167 -0.83333,0.29167 -1.60417,1.16667 -0.6875,0.8125 -1.10416,2.22916 -0.39584,1.41667 -0.39584,3.5625 0,1.91667 0.35417,3.33334 0.35417,1.39583 1.04167,2.25 0.66666,0.8125 1.58333,1.1875 0.9375,0.375 2.125,0.375 1.02083,0 1.9375,-0.33334 0.9375,-0.35416 1.58333,-1.16666 z"
         style="font-style:normal;font-variant:normal;font-weight:bold;font-stretch:normal;font-family:sans-serif;-inkscape-font-specification:'sans-serif Bold';letter-spacing:10px;word-spacing:0px;fill:#ff9955"
         id="path829"
         inkscape:connector-curvature="0" />
      <path
         d="m 401.67643,156.79745 h -7.5 v -2.58334 q -2.08333,1.58334 -3.8125,2.41667 -1.72916,0.8125 -4.125,0.8125 -3.875,0 -5.97916,-2.22917 -2.08334,-2.22916 -2.08334,-6.58333 v -15.22917 h 7.54167 v 11.60417 q 0,1.77083 0.10417,2.95833 0.125,1.16667 0.54166,1.9375 0.39584,0.77084 1.1875,1.125 0.8125,0.35417 2.25,0.35417 0.95834,0 2.125,-0.35417 1.16667,-0.35416 2.25,-1.04166 v -16.58334 h 7.5 z"
         style="font-style:normal;font-variant:normal;font-weight:bold;font-stretch:normal;font-family:sans-serif;-inkscape-font-specification:'sans-serif Bold';letter-spacing:10px;word-spacing:0px;fill:#ff9955"
         id="path831"
         inkscape:connector-curvature="0" />
      <path
         d="m 439.11395,149.38078 q 0,3.625 -3.25,5.85417 -3.25,2.20833 -8.89583,2.20833 -3.125,0 -5.66667,-0.58333 -2.54166,-0.58334 -4.08333,-1.29167 v -6.16667 h 0.6875 q 0.5625,0.39584 1.29167,0.875 0.75,0.45834 2.10416,1 1.16667,0.47917 2.64584,0.83334 1.47916,0.33333 3.16666,0.33333 2.20834,0 3.27084,-0.47917 1.0625,-0.5 1.0625,-1.45833 0,-0.85417 -0.625,-1.22917 -0.625,-0.39583 -2.375,-0.75 -0.83334,-0.1875 -2.27084,-0.39583 -1.41666,-0.22917 -2.58333,-0.54167 -3.1875,-0.83333 -4.72917,-2.58333 -1.54166,-1.77083 -1.54166,-4.39583 0,-3.375 3.1875,-5.60417 3.20833,-2.25 8.75,-2.25 2.625,0 5.02083,0.54167 2.41667,0.52083 3.77083,1.125 v 5.91666 h -0.64583 q -1.66667,-1.14583 -3.8125,-1.85416 -2.125,-0.72917 -4.3125,-0.72917 -1.8125,0 -3.0625,0.5 -1.22917,0.5 -1.22917,1.41667 0,0.83333 0.5625,1.27083 0.5625,0.4375 2.64584,0.875 1.14583,0.22917 2.45833,0.45833 1.33333,0.20834 2.66667,0.54167 2.95833,0.77083 4.375,2.4375 1.41666,1.64583 1.41666,4.125 z"
         style="font-style:normal;font-variant:normal;font-weight:bold;font-stretch:normal;font-family:sans-serif;-inkscape-font-specification:'sans-serif Bold';letter-spacing:10px;word-spacing:0px;fill:#ff9955"
         id="path833"
         inkscape:connector-curvature="0" />
      <path
         d="m 477.1556,146.48495 h -17.16667 q 0.16667,2.75 2.08334,4.20833 1.9375,1.45833 5.6875,1.45833 2.375,0 4.60416,-0.85416 2.22917,-0.85417 3.52084,-1.83334 h 0.83333 v 6.02084 q -2.54167,1.02083 -4.79167,1.47916 -2.25,0.45834 -4.97916,0.45834 -7.04167,0 -10.79167,-3.16667 -3.75,-3.16667 -3.75,-9.02083 0,-5.79167 3.54167,-9.16667 3.5625,-3.39583 9.75,-3.39583 5.70833,0 8.58333,2.89583 2.875,2.875 2.875,8.29167 z m -7.45833,-4.39584 q -0.0625,-2.35416 -1.16667,-3.54166 -1.10417,-1.1875 -3.4375,-1.1875 -2.16667,0 -3.5625,1.125 -1.39583,1.125 -1.5625,3.60416 z"
         style="font-style:normal;font-variant:normal;font-weight:bold;font-stretch:normal;font-family:sans-serif;-inkscape-font-specification:'sans-serif Bold';letter-spacing:10px;word-spacing:0px;fill:#ff9955"
         id="path835"
         inkscape:connector-curvature="0" />
    </g>
  </g>
</svg>
